<svg xmlns="http://www.w3.org/2000/svg" viewBox="0 0 512 512" role="img" aria-label="Focus Planner">
  <rect width="512" height="512" rx="108" fill="#176b55"/>
  <rect x="92" y="88" width="328" height="336" rx="48" fill="#f7f4ee"/>
  <path fill="#0e4f3e" d="M144 170c0-14 11-25 25-25h174c14 0 25 11 25 25s-11 25-25 25H169c-14 0-25-11-25-25Zm0 86c0-14 11-25 25-25h174c14 0 25 11 25 25s-11 25-25 25H169c-14 0-25-11-25-25Zm0 86c0-14 11-25 25-25h94c14 0 25 11 25 25s-11 25-25 25h-94c-14 0-25-11-25-25Z"/>
  <circle cx="348" cy="348" r="38" fill="#b77422"/>
</svg>
